<mxfile host="app.diagrams.net" agent="Mozilla/5.0 (Windows NT 10.0; Win64; x64) AppleWebKit/537.36 (KHTML, like Gecko) Chrome/132.0.0.0 Safari/537.36" version="26.0.14">
  <diagram name="Page-1" id="bp9fZzqt6f0IK-dH6rbc">
    <mxGraphModel dx="1520" dy="118" grid="0" gridSize="10" guides="1" tooltips="1" connect="1" arrows="1" fold="1" page="0" pageScale="1" pageWidth="850" pageHeight="1100" math="0" shadow="0">
      <root>
        <mxCell id="0" />
        <mxCell id="1" parent="0" />
        <mxCell id="9nNE0hjSnc6l7BTQBhYX-8" value="" style="ellipse;whiteSpace=wrap;html=1;" vertex="1" parent="1">
          <mxGeometry x="-195" y="593" width="80" height="80" as="geometry" />
        </mxCell>
        <mxCell id="9nNE0hjSnc6l7BTQBhYX-9" value="" style="ellipse;whiteSpace=wrap;html=1;" vertex="1" parent="1">
          <mxGeometry x="64" y="461" width="80" height="80" as="geometry" />
        </mxCell>
        <mxCell id="9nNE0hjSnc6l7BTQBhYX-10" value="" style="ellipse;whiteSpace=wrap;html=1;" vertex="1" parent="1">
          <mxGeometry x="-66" y="593" width="80" height="80" as="geometry" />
        </mxCell>
        <mxCell id="9nNE0hjSnc6l7BTQBhYX-11" value="" style="ellipse;whiteSpace=wrap;html=1;" vertex="1" parent="1">
          <mxGeometry x="194" y="593" width="80" height="80" as="geometry" />
        </mxCell>
        <mxCell id="9nNE0hjSnc6l7BTQBhYX-13" value="" style="ellipse;whiteSpace=wrap;html=1;" vertex="1" parent="1">
          <mxGeometry x="319" y="593" width="80" height="80" as="geometry" />
        </mxCell>
        <mxCell id="9nNE0hjSnc6l7BTQBhYX-14" value="" style="endArrow=classic;html=1;rounded=0;fontSize=12;startSize=8;endSize=8;curved=1;" edge="1" parent="1">
          <mxGeometry width="50" height="50" relative="1" as="geometry">
            <mxPoint x="-111" y="632.5" as="sourcePoint" />
            <mxPoint x="-70" y="632.5" as="targetPoint" />
            <Array as="points">
              <mxPoint x="-95" y="632.5" />
            </Array>
          </mxGeometry>
        </mxCell>
        <mxCell id="9nNE0hjSnc6l7BTQBhYX-12" value="" style="ellipse;whiteSpace=wrap;html=1;" vertex="1" parent="1">
          <mxGeometry x="62" y="593" width="80" height="80" as="geometry" />
        </mxCell>
        <mxCell id="9nNE0hjSnc6l7BTQBhYX-15" value="1" style="text;strokeColor=none;fillColor=none;html=1;align=center;verticalAlign=middle;whiteSpace=wrap;rounded=0;fontSize=16;" vertex="1" parent="1">
          <mxGeometry x="-123" y="593" width="60" height="30" as="geometry" />
        </mxCell>
        <mxCell id="9nNE0hjSnc6l7BTQBhYX-17" value="" style="endArrow=classic;html=1;rounded=0;fontSize=12;startSize=8;endSize=8;curved=1;" edge="1" parent="1">
          <mxGeometry width="50" height="50" relative="1" as="geometry">
            <mxPoint x="-111" y="632.5" as="sourcePoint" />
            <mxPoint x="-70" y="632.5" as="targetPoint" />
            <Array as="points">
              <mxPoint x="-95" y="632.5" />
            </Array>
          </mxGeometry>
        </mxCell>
        <mxCell id="9nNE0hjSnc6l7BTQBhYX-19" value="" style="endArrow=classic;html=1;rounded=0;fontSize=12;startSize=8;endSize=8;curved=1;" edge="1" parent="1">
          <mxGeometry width="50" height="50" relative="1" as="geometry">
            <mxPoint x="275" y="632.5" as="sourcePoint" />
            <mxPoint x="316" y="632.5" as="targetPoint" />
            <Array as="points" />
          </mxGeometry>
        </mxCell>
        <mxCell id="9nNE0hjSnc6l7BTQBhYX-20" value="" style="endArrow=classic;html=1;rounded=0;fontSize=12;startSize=8;endSize=8;curved=1;" edge="1" parent="1">
          <mxGeometry width="50" height="50" relative="1" as="geometry">
            <mxPoint x="146" y="632.5" as="sourcePoint" />
            <mxPoint x="187" y="632.5" as="targetPoint" />
            <Array as="points" />
          </mxGeometry>
        </mxCell>
        <mxCell id="9nNE0hjSnc6l7BTQBhYX-21" value="" style="endArrow=classic;html=1;rounded=0;fontSize=12;startSize=8;endSize=8;curved=1;" edge="1" parent="1">
          <mxGeometry width="50" height="50" relative="1" as="geometry">
            <mxPoint x="19" y="632.5" as="sourcePoint" />
            <mxPoint x="60" y="632.5" as="targetPoint" />
            <Array as="points">
              <mxPoint x="35" y="632.5" />
            </Array>
          </mxGeometry>
        </mxCell>
        <mxCell id="9nNE0hjSnc6l7BTQBhYX-22" value="q0" style="text;strokeColor=none;fillColor=none;html=1;align=center;verticalAlign=middle;whiteSpace=wrap;rounded=0;fontSize=16;" vertex="1" parent="1">
          <mxGeometry x="-183" y="619" width="60" height="30" as="geometry" />
        </mxCell>
        <mxCell id="9nNE0hjSnc6l7BTQBhYX-23" value="q1" style="text;strokeColor=none;fillColor=none;html=1;align=center;verticalAlign=middle;whiteSpace=wrap;rounded=0;fontSize=16;" vertex="1" parent="1">
          <mxGeometry x="-58" y="618" width="60" height="30" as="geometry" />
        </mxCell>
        <mxCell id="9nNE0hjSnc6l7BTQBhYX-28" value="q5" style="text;strokeColor=none;fillColor=none;html=1;align=center;verticalAlign=middle;whiteSpace=wrap;rounded=0;fontSize=16;" vertex="1" parent="1">
          <mxGeometry x="72" y="473" width="60" height="30" as="geometry" />
        </mxCell>
        <mxCell id="9nNE0hjSnc6l7BTQBhYX-42" style="edgeStyle=none;curved=1;rounded=0;orthogonalLoop=1;jettySize=auto;html=1;entryX=0.5;entryY=0;entryDx=0;entryDy=0;fontSize=12;startSize=8;endSize=8;" edge="1" parent="1" source="9nNE0hjSnc6l7BTQBhYX-29" target="9nNE0hjSnc6l7BTQBhYX-12">
          <mxGeometry relative="1" as="geometry" />
        </mxCell>
        <mxCell id="9nNE0hjSnc6l7BTQBhYX-29" value="q2" style="text;strokeColor=none;fillColor=none;html=1;align=center;verticalAlign=middle;whiteSpace=wrap;rounded=0;fontSize=16;" vertex="1" parent="1">
          <mxGeometry x="74" y="618" width="60" height="30" as="geometry" />
        </mxCell>
        <mxCell id="9nNE0hjSnc6l7BTQBhYX-30" value="" style="endArrow=classic;html=1;rounded=0;fontSize=12;startSize=8;endSize=8;curved=1;entryX=0;entryY=0.5;entryDx=0;entryDy=0;" edge="1" parent="1" target="9nNE0hjSnc6l7BTQBhYX-9">
          <mxGeometry width="50" height="50" relative="1" as="geometry">
            <mxPoint x="-154" y="590" as="sourcePoint" />
            <mxPoint x="51" y="494" as="targetPoint" />
          </mxGeometry>
        </mxCell>
        <mxCell id="9nNE0hjSnc6l7BTQBhYX-31" value="1" style="text;strokeColor=none;fillColor=none;html=1;align=center;verticalAlign=middle;whiteSpace=wrap;rounded=0;fontSize=16;" vertex="1" parent="1">
          <mxGeometry x="132" y="597" width="60" height="30" as="geometry" />
        </mxCell>
        <mxCell id="9nNE0hjSnc6l7BTQBhYX-32" value="1" style="text;strokeColor=none;fillColor=none;html=1;align=center;verticalAlign=middle;whiteSpace=wrap;rounded=0;fontSize=16;" vertex="1" parent="1">
          <mxGeometry x="266" y="597" width="60" height="30" as="geometry" />
        </mxCell>
        <mxCell id="9nNE0hjSnc6l7BTQBhYX-33" value="" style="endArrow=classic;html=1;rounded=0;fontSize=12;startSize=8;endSize=8;curved=1;exitX=0.5;exitY=0;exitDx=0;exitDy=0;entryX=0.075;entryY=0.775;entryDx=0;entryDy=0;entryPerimeter=0;" edge="1" parent="1" source="9nNE0hjSnc6l7BTQBhYX-10" target="9nNE0hjSnc6l7BTQBhYX-9">
          <mxGeometry width="50" height="50" relative="1" as="geometry">
            <mxPoint x="-17" y="590" as="sourcePoint" />
            <mxPoint x="66" y="508" as="targetPoint" />
            <Array as="points">
              <mxPoint x="11" y="565" />
            </Array>
          </mxGeometry>
        </mxCell>
        <mxCell id="9nNE0hjSnc6l7BTQBhYX-34" value="" style="endArrow=classic;html=1;rounded=0;fontSize=12;startSize=8;endSize=8;curved=1;" edge="1" parent="1" source="9nNE0hjSnc6l7BTQBhYX-26">
          <mxGeometry width="50" height="50" relative="1" as="geometry">
            <mxPoint x="207" y="672" as="sourcePoint" />
            <mxPoint x="257" y="622" as="targetPoint" />
          </mxGeometry>
        </mxCell>
        <mxCell id="9nNE0hjSnc6l7BTQBhYX-26" value="q3" style="text;strokeColor=none;fillColor=none;html=1;align=center;verticalAlign=middle;whiteSpace=wrap;rounded=0;fontSize=16;" vertex="1" parent="1">
          <mxGeometry x="199" y="613" width="60" height="30" as="geometry" />
        </mxCell>
        <mxCell id="9nNE0hjSnc6l7BTQBhYX-36" value="" style="endArrow=classic;html=1;rounded=0;fontSize=12;startSize=8;endSize=8;curved=1;entryX=0.5;entryY=1;entryDx=0;entryDy=0;" edge="1" parent="1" target="9nNE0hjSnc6l7BTQBhYX-9">
          <mxGeometry width="50" height="50" relative="1" as="geometry">
            <mxPoint x="101" y="591" as="sourcePoint" />
            <mxPoint x="99" y="532" as="targetPoint" />
          </mxGeometry>
        </mxCell>
        <mxCell id="9nNE0hjSnc6l7BTQBhYX-37" value="" style="endArrow=classic;html=1;rounded=0;fontSize=12;startSize=8;endSize=8;curved=1;exitX=0.35;exitY=-0.037;exitDx=0;exitDy=0;exitPerimeter=0;entryX=0.9;entryY=0.75;entryDx=0;entryDy=0;entryPerimeter=0;" edge="1" parent="1">
          <mxGeometry width="50" height="50" relative="1" as="geometry">
            <mxPoint x="220" y="597" as="sourcePoint" />
            <mxPoint x="134" y="527.96" as="targetPoint" />
          </mxGeometry>
        </mxCell>
        <mxCell id="9nNE0hjSnc6l7BTQBhYX-41" value="" style="endArrow=classic;html=1;rounded=0;fontSize=12;startSize=8;endSize=8;curved=1;entryX=0.913;entryY=0.288;entryDx=0;entryDy=0;entryPerimeter=0;" edge="1" parent="1">
          <mxGeometry width="50" height="50" relative="1" as="geometry">
            <mxPoint x="331.96" y="606.96" as="sourcePoint" />
            <mxPoint x="143.99999999999997" y="502.99999999999994" as="targetPoint" />
          </mxGeometry>
        </mxCell>
        <mxCell id="9nNE0hjSnc6l7BTQBhYX-44" value="1,0" style="text;html=1;align=center;verticalAlign=middle;resizable=0;points=[];autosize=1;strokeColor=none;fillColor=none;fontSize=16;" vertex="1" parent="1">
          <mxGeometry x="226" y="508" width="40" height="31" as="geometry" />
        </mxCell>
        <mxCell id="9nNE0hjSnc6l7BTQBhYX-46" value="0" style="text;html=1;align=center;verticalAlign=middle;resizable=0;points=[];autosize=1;strokeColor=none;fillColor=none;fontSize=16;" vertex="1" parent="1">
          <mxGeometry x="-55" y="510" width="27" height="31" as="geometry" />
        </mxCell>
        <mxCell id="9nNE0hjSnc6l7BTQBhYX-47" value="0" style="text;html=1;align=center;verticalAlign=middle;resizable=0;points=[];autosize=1;strokeColor=none;fillColor=none;fontSize=16;" vertex="1" parent="1">
          <mxGeometry x="21.5" y="602" width="27" height="31" as="geometry" />
        </mxCell>
        <mxCell id="9nNE0hjSnc6l7BTQBhYX-48" value="0" style="text;html=1;align=center;verticalAlign=middle;resizable=0;points=[];autosize=1;strokeColor=none;fillColor=none;fontSize=16;" vertex="1" parent="1">
          <mxGeometry x="151" y="551" width="27" height="31" as="geometry" />
        </mxCell>
        <mxCell id="9nNE0hjSnc6l7BTQBhYX-49" value="0" style="text;html=1;align=center;verticalAlign=middle;resizable=0;points=[];autosize=1;strokeColor=none;fillColor=none;fontSize=16;" vertex="1" parent="1">
          <mxGeometry x="70" y="555" width="27" height="31" as="geometry" />
        </mxCell>
        <mxCell id="9nNE0hjSnc6l7BTQBhYX-52" value="1" style="text;strokeColor=none;fillColor=none;html=1;align=center;verticalAlign=middle;whiteSpace=wrap;rounded=0;fontSize=16;" vertex="1" parent="1">
          <mxGeometry x="-28" y="536" width="60" height="30" as="geometry" />
        </mxCell>
        <mxCell id="9nNE0hjSnc6l7BTQBhYX-53" value="" style="ellipse;whiteSpace=wrap;html=1;aspect=fixed;" vertex="1" parent="1">
          <mxGeometry x="326" y="599.5" width="67" height="67" as="geometry" />
        </mxCell>
        <mxCell id="9nNE0hjSnc6l7BTQBhYX-54" value="q4" style="text;html=1;align=center;verticalAlign=middle;resizable=0;points=[];autosize=1;strokeColor=none;fillColor=none;fontSize=16;" vertex="1" parent="1">
          <mxGeometry x="341" y="617" width="36" height="31" as="geometry" />
        </mxCell>
        <mxCell id="9nNE0hjSnc6l7BTQBhYX-55" value="" style="endArrow=classic;html=1;rounded=0;fontSize=12;startSize=8;endSize=8;curved=1;" edge="1" parent="1">
          <mxGeometry width="50" height="50" relative="1" as="geometry">
            <mxPoint x="-241" y="632.5" as="sourcePoint" />
            <mxPoint x="-200" y="632.5" as="targetPoint" />
            <Array as="points">
              <mxPoint x="-225" y="632.5" />
            </Array>
          </mxGeometry>
        </mxCell>
      </root>
    </mxGraphModel>
  </diagram>
</mxfile>
